<svg width="50" height="50" viewBox="0 0 50 50" fill="none" xmlns="http://www.w3.org/2000/svg">
<rect width="50" height="50" fill="#1E1E1E"/>
<circle cx="25" cy="25" r="25" fill="white"/>
<rect x="15.649" y="6.62854" width="3" height="19.6221" rx="1.5" transform="rotate(-28.1002 15.649 6.62854)" fill="#3C7BBA" fill-opacity="0.729412"/>
<rect x="24" y="22" width="3" height="17" rx="1.5" fill="#3C7BBA" fill-opacity="0.729412"/>
<line x1="48" y1="24.5" x2="45" y2="24.5" stroke="#3C7BBA" stroke-opacity="0.729412"/>
<line x1="8.34808" y1="12.933" x2="5.75001" y2="11.433" stroke="#3C7BBA" stroke-opacity="0.729412"/>
<line y1="-0.5" x2="3" y2="-0.5" transform="matrix(-0.866025 0.5 0.5 0.866025 44.5981 12)" stroke="#3C7BBA" stroke-opacity="0.729412"/>
<line x1="8.75692" y1="37.4124" x2="6.28276" y2="39.109" stroke="#3C7BBA" stroke-opacity="0.729412"/>
<line y1="-0.5" x2="3" y2="-0.5" transform="matrix(-0.824721 -0.56554 -0.56554 0.824721 43.4742 39.6966)" stroke="#3C7BBA" stroke-opacity="0.729412"/>
<line x1="25.506" y1="45.001" x2="25.5" y2="48.001" stroke="#3C7BBA" stroke-opacity="0.729412"/>
<line x1="5" y1="24.5" x2="2" y2="24.5" stroke="#3C7BBA" stroke-opacity="0.729412"/>
<line x1="25.5192" y1="4.00314" x2="25.5" y2="1.0032" stroke="#3C7BBA" stroke-opacity="0.729412"/>
</svg>
