<svg width="1289" height="924" viewBox="0 0 1289 924" fill="none" xmlns="http://www.w3.org/2000/svg">
<rect x="1.55182" y="570.204" width="98" height="349" rx="20" transform="rotate(-49.3583 1.55182 570.204)" fill="white"/>
<path d="M7.17595 439.29C-1.20549 432.096 -2.16782 419.469 5.02654 411.087L71.4619 333.69C78.6562 325.309 91.2829 324.346 99.6644 331.541L486.651 663.717C495.032 670.912 495.995 683.538 488.8 691.92L422.365 769.317C415.171 777.699 402.544 778.661 394.163 771.467L7.17595 439.29Z" fill="white"/>
<rect x="34.9976" y="708.296" width="916" height="119" rx="20" transform="rotate(-49.5035 34.9976 708.296)" fill="white"/>
<rect x="434.033" y="66.3621" width="98" height="349" rx="20" transform="rotate(-49.3583 434.033 66.3621)" fill="white"/>
<rect x="261.649" y="112.121" width="142" height="550" rx="20" transform="rotate(-49.3583 261.649 112.121)" fill="white"/>
<rect x="526.552" y="704.204" width="98" height="349" rx="20" transform="rotate(-49.3583 526.552 704.204)" fill="white"/>
<path d="M532.176 573.29C523.795 566.096 522.832 553.469 530.027 545.087L596.462 467.69C603.656 459.309 616.283 458.346 624.664 465.541L1011.65 797.717C1020.03 804.912 1020.99 817.538 1013.8 825.92L947.365 903.317C940.171 911.699 927.544 912.661 919.163 905.467L532.176 573.29Z" fill="white"/>
<rect x="559.998" y="842.296" width="916" height="119" rx="20" transform="rotate(-49.5035 559.998 842.296)" fill="white"/>
<rect x="959.033" y="200.362" width="98" height="349" rx="20" transform="rotate(-49.3583 959.033 200.362)" fill="white"/>
<rect x="786.649" y="246.121" width="142" height="550" rx="20" transform="rotate(-49.3583 786.649 246.121)" fill="white"/>
</svg>
